#!OML:ASF F:\VICON\USERDATA\INSTALL\rory3\rory3.ASF
:FULLY-SPECIFIED
:DEGREES
60
root 0.09058273123199306 17.81696386943971 16.868327068603804 -0.5884977931564168 -3.858988494382917 -6.954380558578507
lfemur -23.48779065301593 -5.888951341497969 -9.949280725907409
ltibia 19.03507499555894
lfoot -5.818070628180648 2.751306104586763
ltoes -7.782160470108167
rfemur 2.4274720057828727 5.085834211835209 34.242027644185505
rtibia 27.64897161383135
rfoot -13.84171500361926 -6.445679429705365
rtoes 1.4700506388976018
lowerback 9.924632834667939 2.2090491489828974 5.998056146361728
upperback -0.7534018547122594 3.4996455718171773 1.9765263260111117
thorax -5.712724302409219 1.5137818000716639 -2.1169758266050938
lowerneck -16.24297662127511 -2.978773762360041 -1.2666228894612663
upperneck 23.146858352932462 -3.8370031819146755 -0.26257447712475135
head 10.160705782991785 -1.9083952664644082 -0.4266871824900673
lclavicle -1.3874229065033808e-15 -1.84369282095605e-15
lhumerus -36.08882057404609 11.930121052975256 78.59407482155814
lradius 14.83618105582614
lwrist -6.59390832792965
lhand -26.15229823822698 25.560238494549594
lfingers 7.125019999999999
lthumb 0.4385526369436119 55.57624578924442
rclavicle -1.3909837970800026e-15 -1.8453850991582072e-15
rhumerus -20.7288826180963 -12.434819989760495 -81.36412141695708
rradius 30.591849949660958
rwrist -1.9627880101481914
rhand -18.587995510972515 23.338366609600648
rfingers 7.125019999999999
rthumb 7.848911771993467 -6.459152643798994
61
root 0.1530270682345406 17.75279279788036 17.443274467054053 -0.4238271072096209 -3.5976037811637562 -6.502120481704763
lfemur -22.822011149400808 -5.203902753804284 -11.219278409282317
ltibia 15.679389778058525
lfoot -5.781348396702438 2.0736561867409185
ltoes -8.626069456347487
rfemur 3.4386141808970034 5.035575584887784 33.20876922212719
rtibia 29.17424503701963
rfoot -12.697424223795505 -5.811527012891748
rtoes -1.6016377372757935
lowerback 9.67012835363142 2.213980496701142 5.722583881869102
upperback -0.7457860334884886 3.4248748796471595 1.8267779557487398
thorax -5.647200063059486 1.4949722132262273 -2.007871199889739
lowerneck -16.26275824882582 -3.0083332914435643 -1.2742787349689362
upperneck 23.177309871162063 -3.9486280985065076 -0.09749749172500721
head 10.185316107754316 -1.9413341605202552 -0.39786604609693865
lclavicle -1.3880796419687571e-15 -1.8443037003331594e-15
lhumerus -36.21806640079574 12.112581074276651 78.27311466611106
lradius 14.019465332071702
lwrist -6.657823751908833
lhand -25.902570444201633 25.312772469257204
lfingers 7.125019999999999
lthumb 0.594580611730364 55.10598333561235
rclavicle -1.3924223600399968e-15 -1.8466103085762337e-15
rhumerus -20.578739661794348 -12.589261209979632 -81.54362076970436
rradius 30.528948983719225
rwrist -1.554303851300002
rhand -18.908546343185712 23.431923989399053
rfingers 7.125019999999999
rthumb 7.4556198778733584 -6.260338624480044
62
root 0.21272662988371482 17.68556668001325 18.10397878060518 -0.7963412965650261 -2.83581908944234 -6.168230411712159
lfemur -22.744012618773745 -3.68355909900843 -12.885827368513104
ltibia 18.186345657507204
lfoot -5.621818632995991 -0.15635147662782956
ltoes -8.256920924543431
rfemur 3.669999780748901 4.170115182847189 32.218000764804145
rtibia 32.27185256531573
rfoot -10.709316943609863 -5.708887558815076
rtoes -3.470610959571732
lowerback 9.732256777260382 2.031003772342898 5.526238561022307
upperback -0.6705742304081023 3.199232398965044 1.8020356486005131
thorax -5.769180240049077 1.4126488792994663 -1.8452874916937005
lowerneck -16.059302538222628 -3.072598955718887 -1.3594169984610804
upperneck 23.194761373364972 -4.08719631774868 0.040196285884014166
head 10.1736689917772 -1.9808810164903432 -0.36674881455731867
lclavicle -1.3865977455364713e-15 -1.8429265331068088e-15
lhumerus -36.509056532145735 12.149624992263007 78.07091515110932
lradius 13.570556553727522
lwrist -5.870326669268069
lhand -26.135404833090305 25.08045492978883
lfingers 7.125019999999999
lthumb 0.25171910636370676 54.56306427362454
rclavicle -1.3912288816848678e-15 -1.8455975624796516e-15
rhumerus -20.97540102218496 -13.343008201329528 -81.30212083333936
rradius 30.361075078643267
rwrist -0.5745633593692556
rhand -18.900879696922775 23.65795840908321
rfingers 7.125019999999999
rthumb 7.398710157476115 -6.0706762632896005
63
root 0.29679276948942307 17.68514795376065 19.139022219877916 -1.5881061955726832 -3.4442051820885426 -5.567048520622599
lfemur -22.364767569768084 -3.3484060618492792 -13.891620238339991
ltibia 21.99076741859821
lfoot -5.280206983837598 -0.9616741718567614
ltoes -5.508431799999009
rfemur 2.859659872455529 4.604757302038856 30.74420271566968
rtibia 37.0850091986032
rfoot -7.639991310236377 -4.421558422821407
rtoes -2.2449277386905786
lowerback 9.93328109889539 2.288921465027328 5.068420284448233
upperback -0.45371971927532173 3.3816490910131143 1.7052689575720918
thorax -5.738965969175113 1.5044820752695895 -1.7394616894181134
lowerneck -15.77968615654231 -3.1774790399259016 -1.4811458472312702
upperneck 23.39168017923439 -4.317453864974758 0.33539366863901415
head 10.217671339148843 -2.049359480810451 -0.289234988641656
lclavicle -1.387039122997961e-15 -1.843336616313586e-15
lhumerus -36.62156869700354 12.39931670132313 77.72293857661617
lradius 13.937118253634338
lwrist -5.97745692745001
lhand -26.01554897200385 24.978916211528674
lfingers 7.125019999999999
lthumb 0.20524413955859133 54.03443944531654
rclavicle -1.3900127885738964e-15 -1.844537975838449e-15
rhumerus -22.10432288339009 -14.613275775839423 -80.91689538875595
rradius 30.07076740975309
rwrist -0.48776940649266365
rhand -18.995553096325065 23.8465763468384
rfingers 7.125019999999999
rthumb 7.3224769238816565 -5.927343028171478
64
root 0.3846209939254954 17.777828205958045 20.01609515350193 -2.006422409381548 -2.892057011083247 -3.3603619912692215
lfemur -20.252408091030155 -3.56366058878909 -17.030639645425023
ltibia 22.971451625476767
lfoot -5.273567505080628 -2.640955336246053
ltoes -3.6795819743633875
rfemur 0.7794759760293832 3.2695812323549562 26.960205028502656
rtibia 43.42590190920696
rfoot -2.777101687613597 -3.385810307135157
rtoes 1.4116453410108276
lowerback 9.489840499141287 2.1713700547652097 2.977436773702473
upperback -0.30832196179364557 3.1346696770772415 1.0133063525584172
thorax -5.52145619349473 1.4678380507586202 -1.106780668079501
lowerneck -15.852404014845243 -3.124164917090294 -1.45425893484064
upperneck 23.4607493835851 -4.2685366476257975 0.41332912722990617
head 10.196785151961054 -2.0316944472279665 -0.25306582748620976
lclavicle -1.3876257849672782e-15 -1.843881961565453e-15
lhumerus -36.49928328179339 12.119141923564786 77.7526496407313
lradius 14.126744968219144
lwrist -4.74531891585317
lhand -25.62452530249011 25.775072056608025
lfingers 7.125019999999999
lthumb 0.4884170393831211 54.69423242090662
rclavicle -1.3907201044798401e-15 -1.845311866865058e-15
rhumerus -23.314363569067822 -16.05878519421295 -80.59468268112529
rradius 29.458989906468833
rwrist 0.29933112585413024
rhand -18.89472243276454 23.636421207441167
rfingers 7.125019999999999
rthumb 7.48187751586157 -6.008507408336455
65
root 0.44994051269378244 17.796265405969375 20.908464125273404 -2.4099414087078457 -2.5153711167260058 -2.865162951916336
lfemur -17.92379041732179 -2.9987298283075043 -18.1767002469583
ltibia 24.716323887413786
lfoot -5.734820131795264 -3.0460311480276325
ltoes -2.1552144398344995
rfemur -3.4795480005801593 1.7403134470130524 25.315720906997296
rtibia 51.21694822666791
rfoot 2.4881534379515564 -3.968438632659556
rtoes 4.918549625771527
lowerback 9.548674167344124 1.9845012024184023 2.6119493407483567
upperback -0.28410137246098466 2.933428575421142 0.9563668263081258
thorax -5.682531186022895 1.38531889476128 -1.0030743139304137
lowerneck -15.712604058181908 -3.141221685130659 -1.5916151119450113
upperneck 23.551147373197846 -4.311334320190293 0.5326890029035947
head 10.239770280905883 -2.04369379287074 -0.20425495891698958
lclavicle -1.3879187529097035e-15 -1.8441542091514797e-15
lhumerus -36.515430548855655 11.64845584905239 77.99252589062014
lradius 14.820756593336645
lwrist -3.2320984145994944
lhand -26.086217165864 25.353498251511066
lfingers 7.125019999999999
lthumb -0.05788581807962245 54.15008394424135
rclavicle -1.390181171327438e-15 -1.844696377479304e-15
rhumerus -24.7217521682959 -17.520980584733483 -79.93846768251457
rradius 28.39680341332773
rwrist 1.2471960097781123
rhand -18.70577831594722 23.47627065400158
rfingers 7.125019999999999
rthumb 7.610291460201421 -6.278538888748393
66
root 0.5177579598382994 17.854920493993703 21.70315819789368 -2.9019712977951873 -3.7492059637415984 -2.273845120236899
lfemur -15.495592058281698 -2.285070385963535 -19.111088577867235
ltibia 26.055565981372727
lfoot -7.3833495598374075 -1.8744940912646695
ltoes -1.2222996771576065
rfemur -8.50740223820839 2.7784580034178106 24.01566957555168
rtibia 58.73355881747779
rfoot 6.247213171821786 -5.191462425233604
rtoes 11.696737798095612
lowerback 10.23678388873453 2.245501217221664 2.1257463674342
upperback -0.30497400663595653 3.09844028437936 0.8342601707269743
thorax -6.168726479077301 1.4499377038164738 -0.8506554180081458
lowerneck -15.674991644883406 -3.076135496897889 -1.6814321394273999
upperneck 23.36380042091033 -4.169775660020911 0.6735629917919796
head 10.186817735718417 -1.9726238792113444 -0.13184109110333705
lclavicle -1.386538640064357e-15 -1.8428717390764012e-15
lhumerus -36.343998887627656 10.844326947100257 78.37370913797736
lradius 17.042284325943008
lwrist -0.14324132490196506
lhand -27.663596357110407 23.18031210577806
lfingers 7.125019999999999
lthumb -1.535329546970107 52.2681127435618
rclavicle -1.3906888351021911e-15 -1.845017275592377e-15
rhumerus -25.9834307560284 -18.839367049931205 -79.49342188782752
rradius 27.58237414273127
rwrist 2.080964211691386
rhand -18.45109678412715 23.165562342069432
rfingers 7.125019999999999
rthumb 7.8755402349643155 -6.617219496502398
